<svg t="1584089509558" class="icon" viewBox="0 0 1024 1024" version="1.1" xmlns="http://www.w3.org/2000/svg" p-id="69057" width="32" height="32"><path d="M881.152 545.168c-27.664-27.632-68.352-30.112-96.016-2.48l-79.072 79.008c-20.56 20.56-45.36 20.592-59.84 3.52-9.584-11.312-5.776-46.24-3.12-68.352l39.648-325.872c3.568-29.088-17.168-57.248-46.336-60.784-29.12-3.52-55.584 18.848-59.136 47.968l-43.696 255.952c-2.336 6.352-7.184 7.456-7.744-1.088l-14.88-332.704c0-29.312-23.792-53.088-53.104-53.088-29.36 0-53.152 23.776-53.152 53.088l-1.024 335.152c0.272 3.872-3.056 4.992-3.664 0.56l-47.264-261.6c-5.184-28.88-32.848-49.68-61.68-44.464-28.896 5.184-48.064 34.464-42.88 63.328l42.112 306.144c0.032 5.472-1.76 8.56-4.352 1.6l-62.816-167.856c-9.808-27.632-40.16-43.728-67.84-33.92-27.632 9.824-42.08 41.84-32.256 69.472l110.048 359.568c0.576 2 1.2 3.952 1.792 5.92l0.24 0.736c0.048 0.064 0.048 0.096 0.08 0.16 30.464 93.808 118.64 161.664 222.672 161.664 66.56 0 135.744-23.472 188.384-63.872l0 0c56.88-34.224 239.056-230.096 239.056-230.096C912.944 615.168 908.816 572.832 881.152 545.168L881.152 545.168M881.152 545.168 881.152 545.168z" p-id="69058" fill="#ffffff"></path></svg>