<svg t="1584089626180" class="icon" viewBox="0 0 1024 1024" version="1.1" xmlns="http://www.w3.org/2000/svg" p-id="69862" width="32" height="32"><path d="M968.7 783L772.3 667.3c-10.2-5.2-25.2-2.8-33.3 5.3l-57.8 57.8c-8.1 8.1-24.1 14.8-35.5 15 0 0-73.8 0.8-211.1-136.5-137.4-137.4-136.7-211.5-136.7-211.5 0.1-11.5 6.8-27.5 14.9-35.5l49.3-49.3c8.1-8.1 10.8-23.2 6-33.7L259.7 75.2c-4.8-10.4-15.3-12.3-23.4-4.2L102 205c-8.1 8.1-16 24-17.5 35.3 0 0-26.2 195.8 248.2 470.3C607.1 985 803 958.8 803 958.8c11.4-1.5 27.3-9.4 35.4-17.5l134.2-134.2c8-8 6.3-18.9-3.9-24.1z" p-id="69863" fill="#2aa515"></path><path d="M489.2 415.6c28.8 7.2 56.1 21.9 78.6 44.4 22.6 22.6 37.3 50.1 44.5 79.1h54.9c-5.7-44.9-25.8-86.4-58.1-118.9-32.7-32.9-74.6-53.1-119.9-58.6v54zM900.6 539.1h64.5C960.4 293 735.3 68.5 489.2 64.7v63.1c220.7 12.3 398.1 189.9 411.4 411.3z" p-id="69864" fill="#2aa515"></path><path d="M751.7 539.1h64.6c-13-175-152.8-315-327.1-327v65.1C628 289 739 399.9 751.7 539.1z" p-id="69865" fill="#2aa515"></path></svg>