<svg t="1584003715274" class="icon" viewBox="0 0 1024 1024" version="1.1" xmlns="http://www.w3.org/2000/svg" p-id="49821" width="32" height="32"><path d="M512 0C229.325 0 0 229.325 0 512s229.325 512 512 512 512-229.325 512-512S794.675 0 512 0z" opacity=".7" p-id="49822" fill="#e6e6e6" data-spm-anchor-id="a313x.7781069.0.i131" class="selected"></path><path d="M722.995 713.165c-10.675 10.675-29.67 10.675-40.55 0l-161.05-161.05-161.075 161.05c-10.675 10.675-29.645 10.675-40.525 0-10.675-10.65-10.675-29.645 0-40.525l161.05-161.075-160.41-160.41c-10.675-10.675-10.675-29.67 0-40.55 10.65-10.65 29.645-10.65 40.525 0L521.395 471.04l160.41-160.435c11.315-10.65 29.67-10.65 40.55 0 10.65 10.675 10.65 29.67 0 40.55L561.92 511.565 722.995 672.64c10.65 10.88 10.65 29.875 0 40.525z" fill="#2aa515" p-id="49823" data-spm-anchor-id="a313x.7781069.0.i129" class=""></path></svg>