<svg t="1583908385638" class="icon" viewBox="0 0 1024 1024" version="1.1" xmlns="http://www.w3.org/2000/svg" p-id="30770" width="32" height="32"><path d="M520.896 294.4c0-11.712 4.096-21.632 12.288-29.824a40.576 40.576 0 0 1 29.76-12.288c11.712 0 21.632 4.096 29.824 12.288l49.152 49.088 179.2-173.248a44.16 44.16 0 1 1 62.4 62.4L710.4 382.08l49.088 49.152a40.576 40.576 0 0 1 12.288 29.824 40.576 40.576 0 0 1-12.288 29.76 40.576 40.576 0 0 1-29.824 12.288H562.944a40.576 40.576 0 0 1-29.76-12.288 40.576 40.576 0 0 1-12.288-29.76V294.4z m-362.24 570.88a44.16 44.16 0 0 1-0.512-61.888l173.312-179.2-49.088-49.152a40.576 40.576 0 0 1-12.288-29.824c0-11.712 4.096-21.632 12.288-29.824a40.576 40.576 0 0 1 29.824-12.288H478.72c11.712 0 21.632 4.096 29.824 12.288a40.576 40.576 0 0 1 12.288 29.824v166.592a40.576 40.576 0 0 1-12.288 29.824 40.576 40.576 0 0 1-29.824 12.288 40.576 40.576 0 0 1-29.824-12.288l-49.088-49.088-179.264 173.312a44.16 44.16 0 0 1-61.888-0.576z" fill="#ffffff" p-id="30771"></path></svg>