<svg t="1585204152567" class="icon" viewBox="0 0 3424 1024" version="1.1" xmlns="http://www.w3.org/2000/svg" p-id="65874" width="30" height="30"><path d="M1224.79878027 512.06788598l322.15735999-322.16130271c16.28671199-16.28277006 16.28671199-43.01825 0-59.30003361l-1.76330978-1.76725249c-16.28178437-16.28277006-43.01726432-16.28277006-59.30397632 0L1163.73149416 451.40865503 841.56920653 128.70426447c-16.28178437-16.28277006-43.01726432-16.28277006-59.30003437 0l-1.76725173 1.76330978c-16.68983873 16.28572632-16.68983873 43.01825 0 59.30397709L1102.66420806 512.06788598 780.50192043 834.22623166c-16.28178437 16.28572632-16.28178437 43.01726432 0 59.30397632l1.76725173 1.76330978c16.28277006 16.28572632 43.01825 16.28572632 59.30003437 0l322.16228762-322.15834568 322.15736 322.15834568c16.28671199 16.28572632 43.02219271 16.28572632 59.30397633 0l1.76330978-1.76330978c16.28671199-16.28671199 16.28671199-43.01825 0-59.30397632L1224.79878027 512.06788598z m0 0" fill="#22A565" p-id="65875"></path></svg>