<svg t="1583896849793" class="icon" viewBox="0 0 1173 1024" version="1.1" xmlns="http://www.w3.org/2000/svg" p-id="24504" width="32" height="32"><path d="M1020.112878 397.366566a638.456152 638.456152 0 0 1-158.227876 222.372726q-18.291477 16.281908-37.873772 31.243662A283.437215 283.437215 0 0 1 769.914224 792.386191a606.787108 606.787108 0 0 1-114.266724 119.840711 1000.897293 1000.897293 0 0 1-163.64051 108.839421 26.065721 26.065721 0 0 1-11.734708 2.933677 26.652457 26.652457 0 0 1-21.489185-11.147973 27.517891 27.517891 0 0 1 2.786993-34.910758 361.561037 361.561037 0 0 0 49.549807-69.821515 381.774072 381.774072 0 0 0 48.082968-159.592036c-42.905028-17.015327-94.200372-65.861051-117.200401-89.183784s-70.980318-75.68887-87.716946-119.400659a366.196247 366.196247 0 0 0-156.761037 48.992408 351.117147 351.117147 0 0 0-68.721387 50.459246 26.403094 26.403094 0 0 1-18.702192 7.774244 25.816359 25.816359 0 0 1-15.504483-5.133934 27.092508 27.092508 0 0 1-8.111617-33.737287 1030.982152 1030.982152 0 0 1 106.932531-166.486177 597.898066 597.898066 0 0 1 117.860478-116.320298 272.831972 272.831972 0 0 1 138.92428-55.15313c9.72514-13.201547 19.978341-26.109726 30.80361-38.43117a626.633434 626.633434 0 0 1 218.558946-161.058874c104.145538-46.79215 226.523879-70.701619 363.863974-70.701619v-0.146684h26.403094v26.98983c-0.293368 139.789715-23.689443 264.324309-69.718837 370.376736z m-142.386019-46.938834a132.338175 132.338175 0 1 0-132.426186 134.65578 133.555651 133.555651 0 0 0 132.426186-134.65578z m-132.382181 80.822805a80.764131 80.764131 0 1 1 79.458645-80.822805 80.001375 80.001375 0 0 1-79.517318 80.822805zM327.779745 710.536599a60.375075 60.375075 0 0 1 42.743676 21.562527 57.734766 57.734766 0 0 1 20.022346 54.273027c-4.09248 18.62885-20.843776 49.285776-77.346397 88.743733a891.969861 891.969861 0 0 1-169.390517 87.716946 857.54316 857.54316 0 0 1 94.787107-184.674975c32.109096-44.298525 62.986048-67.621258 89.183785-67.621258z" fill="#ffffff" p-id="24505"></path></svg>