<svg t="1583897328275" class="icon" viewBox="0 0 1031 1024" version="1.1" xmlns="http://www.w3.org/2000/svg" p-id="28530" width="32" height="32"><path d="M724.114286 512H299.885714c-36.571429 0-58.514286-21.942857-58.514285-58.514286 0-29.257143 21.942857-58.514286 51.2-58.514285h431.542857c29.257143 0 51.2 21.942857 51.2 58.514285 7.314286 36.571429-14.628571 58.514286-51.2 58.514286z m190.171428-329.142857H555.885714c-21.942857 0-43.885714-7.314286-65.828571-29.257143L380.342857 65.828571C358.4 51.2 336.457143 43.885714 314.514286 43.885714H109.714286C51.2 43.885714 0 95.085714 0 153.6v716.8c0 58.514286 51.2 109.714286 109.714286 109.714286h811.885714c58.514286 0 109.714286-51.2 109.714286-109.714286V292.571429c-7.314286-65.828571-58.514286-109.714286-117.028572-109.714286z" p-id="28531" fill="#ffffff"></path></svg>