<svg t="1583897395168" class="icon" viewBox="0 0 1024 1024" version="1.1" xmlns="http://www.w3.org/2000/svg" p-id="29923" width="32" height="32"><path d="M289.536 514.867h444.928a31.744 31.744 0 1 1 0 63.488H289.536a31.744 31.744 0 1 1 0-63.488z m0-190.361h444.928a31.744 31.744 0 1 1 0 63.488H289.536a31.744 31.744 0 1 1 0-63.488z m29.286 638.259a47.718 47.718 0 0 1-76.953-37.581V800.41h-95.335A95.232 95.232 0 0 1 51.2 705.229V197.632a95.232 95.232 0 0 1 95.334-95.232h730.932a95.232 95.232 0 0 1 95.334 95.232v507.597a95.232 95.232 0 0 1-95.334 95.232H527.872l-209.05 162.304z" p-id="29924" fill="#ffffff"></path></svg>