<svg t="1583897138352" class="icon" viewBox="0 0 1024 1024" version="1.1" xmlns="http://www.w3.org/2000/svg" p-id="25333" width="32" height="32"><path d="M511.83718059 137.45021269c-206.74447815 0-374.38696789 167.64248974-374.3869679 374.3869679s167.64248974 374.38696789 374.3869679 374.38696789c34.5264731 0 62.39782798-27.87135488 62.39782798-62.39782798 0-16.22343566-6.03211549-30.78260395-16.22343566-41.80654421-9.77598464-11.02394141-15.59945671-25.37544135-15.59945672-41.39023474 0-34.5264731 27.87135488-62.39782798 62.39782799-62.39782798H678.23171357c114.81200299 0 207.99243491-93.18043193 207.99243491-207.99243492 0-183.86592427-167.64248974-332.78809088-374.38696789-332.78809088z m-228.79236096 374.3869679c-34.5264731 0-62.39782798-27.87135488-62.39782798-62.39782798s27.87135488-62.39782798 62.39782798-62.39782799 62.39782798 27.87135488 62.39782798 62.39782799-27.87135488 62.39782798-62.39782798 62.39782798z m124.79565596-166.39453298c-34.5264731 0-62.39782798-27.87135488-62.39782798-62.39782798s27.87135488-62.39782798 62.39782798-62.39782798 62.39782798 27.87135488 62.39782798 62.39782798-27.87135488 62.39782798-62.39782798 62.39782798z m207.99340999 0c-34.5264731 0-62.39782798-27.87135488-62.39782798-62.39782798s27.87135488-62.39782798 62.39782798-62.39782798 62.39782798 27.87135488 62.39782799 62.39782798-27.87135488 62.39782798-62.39782799 62.39782798z m124.79565597 166.39453298c-34.5264731 0-62.39782798-27.87135488-62.39782798-62.39782798s27.87135488-62.39782798 62.39782798-62.39782799 62.39782798 27.87135488 62.39782798 62.39782799-27.87135488 62.39782798-62.39782798 62.39782798z" p-id="25334" fill="#ffffff"></path></svg>