<svg t="1583994315741" class="icon" viewBox="0 0 1024 1024" version="1.1" xmlns="http://www.w3.org/2000/svg" p-id="48966" width="32" height="32"><path d="M79.36 916.48H422.4v51.2H79.36zM550.4 916.48h376.32v51.2H550.4zM629.76 158.72L844.8 373.76 373.76 844.8 158.72 629.76l471.04-471.04z m0 0M716.8 74.24l215.04 215.04-64 64L652.8 138.24l64-64z m0 0" p-id="48967" fill="#8a8a8a"></path><path d="M138.24 652.8l215.04 215.04L51.2 952.32l87.04-299.52z m0 0M798.72 71.68L931.84 204.8c23.04 23.04 20.48 58.88-2.56 81.92s-61.44 25.6-81.92 2.56L714.24 156.16c-23.04-20.48-23.04-58.88 2.56-81.92 23.04-23.04 58.88-25.6 81.92-2.56z m0 0" p-id="48968" fill="#8a8a8a"></path></svg>