<svg t="1583890210560" class="icon" viewBox="0 0 1024 1024" version="1.1" xmlns="http://www.w3.org/2000/svg" p-id="22581" width="32" height="32"><path d="M32 1024c-17.6 0-32-14.4-32-32V672c0-17.6 14.4-32 32-32s32 14.4 32 32v320c0 17.6-14.4 32-32 32z" fill="#bfbfbf" p-id="22582"></path><path d="M992 1024H32c-17.6 0-32-14.4-32-32s14.4-32 32-32h960c17.6 0 32 14.4 32 32s-14.4 32-32 32z" fill="#bfbfbf" p-id="22583"></path><path d="M992 1024c-17.6 0-32-14.4-32-32V672c0-17.6 14.4-32 32-32s32 14.4 32 32v320c0 17.6-14.4 32-32 32zM512 768c-17.6 0-32-14.4-32-32V32c0-17.6 14.4-32 32-32s32 14.4 32 32v704c0 17.6-14.4 32-32 32z" fill="#bfbfbf" p-id="22584"></path><path d="M536.1 756.4c-11.3 13.5-31.6 15.3-45.1 3.9L245.9 554.7c-13.5-11.3-15.3-31.6-3.9-45.1 11.3-13.5 31.6-15.3 45.1-3.9l245.1 205.7c13.4 11.2 15.2 31.5 3.9 45z" fill="#bfbfbf" p-id="22585"></path><path d="M487.9 756.4c11.3 13.5 31.6 15.3 45.1 3.9l245.1-205.7c13.5-11.3 15.3-31.6 3.9-45.1-11.3-13.5-31.6-15.3-45.1-3.9l-245 205.7c-13.5 11.3-15.3 31.6-4 45.1z" fill="#bfbfbf" p-id="22586"></path></svg>