<svg t="1584004165508" class="icon" viewBox="0 0 2679 1024" version="1.1" xmlns="http://www.w3.org/2000/svg" p-id="51095" width="32" height="32"><path d="M1843.315 853.375h-1194.625c-187.75 0-341.375-153.625-341.375-341.375 0-187.75 153.625-341.375 341.375-341.375h1194.625c187.75 0 341.375 153.625 341.375 341.375-0.125 187.75-153.625 341.375-341.375 341.375z m0 0" fill="#87c38f" opacity=".15" p-id="51096" data-spm-anchor-id="a313x.7781069.0.i134" class="selected"></path><path d="M1245.94 512C1245.94 229.25 1016.69 0 733.94 0 451.19 0 221.94 229.25 221.94 512c0 282.75 229.25 512 512 512 282.75 0 512-229.25 512-512z m0 0" fill="#e6e6e6" p-id="51097" data-spm-anchor-id="a313x.7781069.0.i137" class=""></path></svg>