<svg t="1583978474084" class="icon" viewBox="0 0 1024 1024" version="1.1" xmlns="http://www.w3.org/2000/svg" p-id="34505" width="32" height="32"><path d="M963.328 1002.819a37.628 37.628 0 0 1-26.596-11.034L30.815 85.868c-14.687-14.686-14.687-38.502 0-53.19 14.686-14.687 38.502-14.687 53.19 0l905.992 906a37.697 37.697 0 0 1 7.936 40.912 37.691 37.691 0 0 1-34.605 23.229" fill="#ffffff" p-id="34506"></path><path d="M57.407 1002.819a37.555 37.555 0 0 1-34.857-23.182 37.537 37.537 0 0 1 8.265-41.035L936.816 32.68c14.866-13.52 37.739-12.973 51.937 1.249 14.202 14.22 14.716 37.094 1.17 51.942L84.004 991.787a37.579 37.579 0 0 1-26.598 11.032" fill="#ffffff" p-id="34507"></path></svg>